<mxfile host="app.diagrams.net" modified="2021-04-06T08:58:33.128Z" agent="5.0 (Windows NT 10.0; Win64; x64) AppleWebKit/537.36 (KHTML, like Gecko) Chrome/80.0.3987.132 Safari/537.36" etag="So3aY_t6S3vhkNQpVf2g" version="14.5.7" type="github">
  <diagram id="kgpKYQtTHZ0yAKxKKP6v" name="关闭要货单">
    <mxGraphModel dx="1422" dy="794" grid="1" gridSize="10" guides="1" tooltips="1" connect="1" arrows="1" fold="1" page="1" pageScale="1" pageWidth="850" pageHeight="1100" math="0" shadow="0">
      <root>
        <mxCell id="0" />
        <mxCell id="1" parent="0" />
        <mxCell id="3nuBFxr9cyL0pnOWT2aG-1" value=":Object" style="shape=umlLifeline;perimeter=lifelinePerimeter;container=1;collapsible=0;recursiveResize=0;rounded=0;shadow=0;strokeWidth=1;" parent="1" vertex="1">
          <mxGeometry x="120" y="80" width="100" height="300" as="geometry" />
        </mxCell>
        <mxCell id="3nuBFxr9cyL0pnOWT2aG-2" value="" style="points=[];perimeter=orthogonalPerimeter;rounded=0;shadow=0;strokeWidth=1;" parent="3nuBFxr9cyL0pnOWT2aG-1" vertex="1">
          <mxGeometry x="45" y="70" width="10" height="190" as="geometry" />
        </mxCell>
        <mxCell id="3nuBFxr9cyL0pnOWT2aG-3" value="dispatch" style="verticalAlign=bottom;startArrow=oval;endArrow=block;startSize=8;shadow=0;strokeWidth=1;" parent="3nuBFxr9cyL0pnOWT2aG-1" target="3nuBFxr9cyL0pnOWT2aG-2" edge="1">
          <mxGeometry relative="1" as="geometry">
            <mxPoint x="-15" y="70" as="sourcePoint" />
          </mxGeometry>
        </mxCell>
        <mxCell id="3nuBFxr9cyL0pnOWT2aG-4" value="" style="points=[];perimeter=orthogonalPerimeter;rounded=0;shadow=0;strokeWidth=1;" parent="3nuBFxr9cyL0pnOWT2aG-1" vertex="1">
          <mxGeometry x="50" y="120" width="10" height="80" as="geometry" />
        </mxCell>
        <mxCell id="3nuBFxr9cyL0pnOWT2aG-5" value=":Object" style="shape=umlLifeline;perimeter=lifelinePerimeter;container=1;collapsible=0;recursiveResize=0;rounded=0;shadow=0;strokeWidth=1;" parent="1" vertex="1">
          <mxGeometry x="300" y="80" width="100" height="300" as="geometry" />
        </mxCell>
        <mxCell id="3nuBFxr9cyL0pnOWT2aG-6" value="" style="points=[];perimeter=orthogonalPerimeter;rounded=0;shadow=0;strokeWidth=1;" parent="3nuBFxr9cyL0pnOWT2aG-5" vertex="1">
          <mxGeometry x="45" y="80" width="10" height="160" as="geometry" />
        </mxCell>
        <mxCell id="3nuBFxr9cyL0pnOWT2aG-7" value="return" style="verticalAlign=bottom;endArrow=open;dashed=1;endSize=8;exitX=0;exitY=0.95;shadow=0;strokeWidth=1;" parent="1" source="3nuBFxr9cyL0pnOWT2aG-6" target="3nuBFxr9cyL0pnOWT2aG-2" edge="1">
          <mxGeometry relative="1" as="geometry">
            <mxPoint x="275" y="236" as="targetPoint" />
          </mxGeometry>
        </mxCell>
        <mxCell id="3nuBFxr9cyL0pnOWT2aG-8" value="dispatch" style="verticalAlign=bottom;endArrow=block;entryX=0;entryY=0;shadow=0;strokeWidth=1;" parent="1" source="3nuBFxr9cyL0pnOWT2aG-2" target="3nuBFxr9cyL0pnOWT2aG-6" edge="1">
          <mxGeometry relative="1" as="geometry">
            <mxPoint x="275" y="160" as="sourcePoint" />
          </mxGeometry>
        </mxCell>
        <mxCell id="3nuBFxr9cyL0pnOWT2aG-9" value="callback" style="verticalAlign=bottom;endArrow=block;entryX=1;entryY=0;shadow=0;strokeWidth=1;" parent="1" source="3nuBFxr9cyL0pnOWT2aG-6" target="3nuBFxr9cyL0pnOWT2aG-4" edge="1">
          <mxGeometry relative="1" as="geometry">
            <mxPoint x="240" y="200" as="sourcePoint" />
          </mxGeometry>
        </mxCell>
        <mxCell id="3nuBFxr9cyL0pnOWT2aG-10" value="return" style="verticalAlign=bottom;endArrow=open;dashed=1;endSize=8;exitX=1;exitY=0.95;shadow=0;strokeWidth=1;" parent="1" source="3nuBFxr9cyL0pnOWT2aG-4" target="3nuBFxr9cyL0pnOWT2aG-6" edge="1">
          <mxGeometry relative="1" as="geometry">
            <mxPoint x="240" y="257" as="targetPoint" />
          </mxGeometry>
        </mxCell>
        <mxCell id="_y9LpxyYnaiCuJYHgKzP-1" value="&lt;span style=&quot;color: rgb(51 , 51 , 51) ; font-family: &amp;#34;open sans&amp;#34; , &amp;#34;clear sans&amp;#34; , &amp;#34;helvetica neue&amp;#34; , &amp;#34;helvetica&amp;#34; , &amp;#34;arial&amp;#34; , sans-serif ; font-size: 16px ; font-weight: 400 ; background-color: rgb(255 , 255 , 255)&quot;&gt;common-api-rest&lt;/span&gt;" style="swimlane;html=1;childLayout=stackLayout;resizeParent=1;resizeParentMax=0;startSize=20;" vertex="1" parent="1">
          <mxGeometry x="100" y="470" width="430" height="250" as="geometry" />
        </mxCell>
        <mxCell id="_y9LpxyYnaiCuJYHgKzP-2" value="Controller" style="swimlane;html=1;startSize=20;" vertex="1" parent="_y9LpxyYnaiCuJYHgKzP-1">
          <mxGeometry y="20" width="190" height="230" as="geometry" />
        </mxCell>
        <mxCell id="_y9LpxyYnaiCuJYHgKzP-5" value="ShopPurchaseController" style="swimlane;fontStyle=1;align=center;verticalAlign=top;childLayout=stackLayout;horizontal=1;startSize=26;horizontalStack=0;resizeParent=1;resizeParentMax=0;resizeLast=0;collapsible=1;marginBottom=0;" vertex="1" parent="_y9LpxyYnaiCuJYHgKzP-2">
          <mxGeometry x="7.5" y="110" width="175" height="86" as="geometry" />
        </mxCell>
        <mxCell id="_y9LpxyYnaiCuJYHgKzP-6" value="+ fShopPurchaseServiceClient: FShopPurchaseServiceClient" style="text;strokeColor=none;fillColor=none;align=left;verticalAlign=top;spacingLeft=4;spacingRight=4;overflow=hidden;rotatable=0;points=[[0,0.5],[1,0.5]];portConstraint=eastwest;" vertex="1" parent="_y9LpxyYnaiCuJYHgKzP-5">
          <mxGeometry y="26" width="175" height="26" as="geometry" />
        </mxCell>
        <mxCell id="_y9LpxyYnaiCuJYHgKzP-7" value="" style="line;strokeWidth=1;fillColor=none;align=left;verticalAlign=middle;spacingTop=-1;spacingLeft=3;spacingRight=3;rotatable=0;labelPosition=right;points=[];portConstraint=eastwest;" vertex="1" parent="_y9LpxyYnaiCuJYHgKzP-5">
          <mxGeometry y="52" width="175" height="8" as="geometry" />
        </mxCell>
        <mxCell id="_y9LpxyYnaiCuJYHgKzP-8" value="+ closeShopPurchaseOrder(ShopPurchaseOrderDto): Integer" style="text;strokeColor=none;fillColor=none;align=left;verticalAlign=top;spacingLeft=4;spacingRight=4;overflow=hidden;rotatable=0;points=[[0,0.5],[1,0.5]];portConstraint=eastwest;" vertex="1" parent="_y9LpxyYnaiCuJYHgKzP-5">
          <mxGeometry y="60" width="175" height="26" as="geometry" />
        </mxCell>
        <mxCell id="_y9LpxyYnaiCuJYHgKzP-13" value="" style="endArrow=open;endFill=1;endSize=12;html=1;" edge="1" parent="_y9LpxyYnaiCuJYHgKzP-2">
          <mxGeometry width="160" relative="1" as="geometry">
            <mxPoint x="-52.5" y="161" as="sourcePoint" />
            <mxPoint x="7.5" y="161" as="targetPoint" />
          </mxGeometry>
        </mxCell>
        <mxCell id="_y9LpxyYnaiCuJYHgKzP-12" value="" style="endArrow=none;endFill=0;endSize=12;html=1;exitX=0.471;exitY=1;exitDx=0;exitDy=0;exitPerimeter=0;" edge="1" parent="_y9LpxyYnaiCuJYHgKzP-2" source="_y9LpxyYnaiCuJYHgKzP-8">
          <mxGeometry width="160" relative="1" as="geometry">
            <mxPoint x="89.5" y="210" as="sourcePoint" />
            <mxPoint x="89.5" y="330" as="targetPoint" />
          </mxGeometry>
        </mxCell>
        <mxCell id="_y9LpxyYnaiCuJYHgKzP-3" value="Lane 2" style="swimlane;html=1;startSize=20;" vertex="1" parent="_y9LpxyYnaiCuJYHgKzP-1">
          <mxGeometry x="190" y="20" width="120" height="230" as="geometry" />
        </mxCell>
        <mxCell id="_y9LpxyYnaiCuJYHgKzP-4" value="Lane 3" style="swimlane;html=1;startSize=20;" vertex="1" parent="_y9LpxyYnaiCuJYHgKzP-1">
          <mxGeometry x="310" y="20" width="120" height="230" as="geometry" />
        </mxCell>
        <mxCell id="_y9LpxyYnaiCuJYHgKzP-9" value="Actor" style="shape=umlActor;verticalLabelPosition=bottom;verticalAlign=top;html=1;" vertex="1" parent="1">
          <mxGeometry x="10" y="613" width="30" height="60" as="geometry" />
        </mxCell>
        <mxCell id="_y9LpxyYnaiCuJYHgKzP-14" value="检验商户&lt;br&gt;ERP版本" style="strokeWidth=2;html=1;shape=mxgraph.flowchart.decision;whiteSpace=wrap;" vertex="1" parent="1">
          <mxGeometry x="140" y="820" width="100" height="60" as="geometry" />
        </mxCell>
        <mxCell id="_y9LpxyYnaiCuJYHgKzP-15" value="" style="rounded=0;whiteSpace=wrap;html=1;dashed=1;fillColor=none;" vertex="1" parent="1">
          <mxGeometry x="50" y="920" width="340" height="200" as="geometry" />
        </mxCell>
        <mxCell id="_y9LpxyYnaiCuJYHgKzP-16" value="校验要货单状态" style="text;html=1;strokeColor=none;fillColor=none;align=center;verticalAlign=middle;whiteSpace=wrap;rounded=0;dashed=1;" vertex="1" parent="1">
          <mxGeometry x="60" y="940" width="90" height="20" as="geometry" />
        </mxCell>
        <mxCell id="_y9LpxyYnaiCuJYHgKzP-19" value="查询门店要货单详情" style="rounded=0;whiteSpace=wrap;html=1;" vertex="1" parent="1">
          <mxGeometry x="130" y="980" width="120" height="60" as="geometry" />
        </mxCell>
        <mxCell id="_y9LpxyYnaiCuJYHgKzP-23" style="edgeStyle=orthogonalEdgeStyle;rounded=0;orthogonalLoop=1;jettySize=auto;html=1;entryX=0.5;entryY=0;entryDx=0;entryDy=0;endArrow=none;endFill=0;labelBackgroundColor=#ffffff;exitX=0;exitY=0.5;exitDx=0;exitDy=0;" edge="1" parent="1" source="_y9LpxyYnaiCuJYHgKzP-20" target="_y9LpxyYnaiCuJYHgKzP-22">
          <mxGeometry relative="1" as="geometry" />
        </mxCell>
        <mxCell id="_y9LpxyYnaiCuJYHgKzP-24" value="&lt;pre style=&quot;background-color: rgb(43 , 43 , 43) ; font-family: , monospace ; font-size: 9.8pt ; color: rgb(169 , 183 , 198)&quot;&gt;&lt;br&gt;&lt;/pre&gt;" style="edgeLabel;html=1;align=center;verticalAlign=middle;resizable=0;points=[];" vertex="1" connectable="0" parent="_y9LpxyYnaiCuJYHgKzP-23">
          <mxGeometry x="0.1586" y="3" relative="1" as="geometry">
            <mxPoint as="offset" />
          </mxGeometry>
        </mxCell>
        <mxCell id="_y9LpxyYnaiCuJYHgKzP-29" value="要货单" style="edgeLabel;html=1;align=center;verticalAlign=middle;resizable=0;points=[];fontColor=#000000;" vertex="1" connectable="0" parent="_y9LpxyYnaiCuJYHgKzP-23">
          <mxGeometry x="-0.1" relative="1" as="geometry">
            <mxPoint y="26" as="offset" />
          </mxGeometry>
        </mxCell>
        <mxCell id="_y9LpxyYnaiCuJYHgKzP-27" style="edgeStyle=orthogonalEdgeStyle;rounded=0;orthogonalLoop=1;jettySize=auto;html=1;entryX=0.5;entryY=0;entryDx=0;entryDy=0;labelBackgroundColor=#ffffff;endArrow=none;endFill=0;strokeColor=#000000;fontColor=#000000;exitX=1;exitY=0.5;exitDx=0;exitDy=0;" edge="1" parent="1" source="_y9LpxyYnaiCuJYHgKzP-20" target="_y9LpxyYnaiCuJYHgKzP-25">
          <mxGeometry relative="1" as="geometry">
            <Array as="points">
              <mxPoint x="260" y="1105" />
            </Array>
          </mxGeometry>
        </mxCell>
        <mxCell id="_y9LpxyYnaiCuJYHgKzP-28" value="要货子单" style="edgeLabel;html=1;align=center;verticalAlign=middle;resizable=0;points=[];fontColor=#000000;" vertex="1" connectable="0" parent="_y9LpxyYnaiCuJYHgKzP-27">
          <mxGeometry x="0.0609" y="-2" relative="1" as="geometry">
            <mxPoint x="2" y="9" as="offset" />
          </mxGeometry>
        </mxCell>
        <mxCell id="_y9LpxyYnaiCuJYHgKzP-20" value="要货单类型" style="rhombus;whiteSpace=wrap;html=1;fillColor=#ffffff;" vertex="1" parent="1">
          <mxGeometry x="140" y="1080" width="100" height="50" as="geometry" />
        </mxCell>
        <mxCell id="_y9LpxyYnaiCuJYHgKzP-22" value="是否为&lt;br&gt;【待提交】&lt;br&gt;状态" style="rhombus;whiteSpace=wrap;html=1;fillColor=#ffffff;" vertex="1" parent="1">
          <mxGeometry x="55" y="1190" width="135" height="60" as="geometry" />
        </mxCell>
        <mxCell id="_y9LpxyYnaiCuJYHgKzP-25" value="是否为" style="rhombus;whiteSpace=wrap;html=1;fillColor=#ffffff;" vertex="1" parent="1">
          <mxGeometry x="210" y="1190" width="100" height="50" as="geometry" />
        </mxCell>
      </root>
    </mxGraphModel>
  </diagram>
</mxfile>
